# xmcd CD database generated by RipIT
#
# Track frame offsets:
# 150
# 19246
# 39766
# 58569
# 76007
# 95895
# 122022
# 136799
# 151668
# 168042
#
# Disc length: 2541 seconds
#
# Revision: 0
# Processed by: cddbd v1.5.2PL0 Copyright (c) Steve Scherf et al.
# Submitted via: RipIT 3.9.0 www.suwald.com/ripit/ripit.html on 2015-08-23 at 19:50
#
DISCID=6809eb0a
DTITLE=Emily Smith - Too long away
DYEAR=2008
DGENRE=Folk
TTITLE0=Sunset Hymn
TTITLE1=Caledonia
TTITLE2=Audience of Souls
TTITLE3=As I was a Wandring
TTITLE4=May Colven
TTITLE5=The Mermaid of Galloway
TTITLE6=The Bleacher Lassie o Kelvinhaugh
TTITLE7=Come Home Pretty Bird
TTITLE8=Old Mortality
TTITLE9=Winter Song
EXTD=
EXTT0=
EXTT1=
EXTT2=
EXTT3=
EXTT4=
EXTT5=
EXTT6=
EXTT7=
EXTT8=
EXTT9=
PLAYORDER=
